<svg xmlns="http://www.w3.org/2000/svg" viewBox="0 0 1200 760">
<defs><linearGradient id="g" x1="0" y1="0" x2="1" y2="1"><stop stop-color="#004b87"/><stop offset="1" stop-color="#38aee2"/></linearGradient><filter id="s" x="-20%" y="-20%" width="140%" height="140%"><feDropShadow dx="0" dy="24" stdDeviation="26" flood-color="#004b87" flood-opacity=".18"/></filter></defs>
<rect width="1200" height="760" rx="40" fill="#f4f9fd"/>
<circle cx="1010" cy="120" r="210" fill="#dff4ff"/><circle cx="145" cy="650" r="170" fill="#e7f6ff"/>
<g filter="url(#s)"><rect x="110" y="90" width="980" height="580" rx="28" fill="white"/><rect x="110" y="90" width="980" height="70" rx="28" fill="#061626"/><circle cx="155" cy="126" r="9" fill="#ff6961"/><circle cx="185" cy="126" r="9" fill="#ffbd2e"/><circle cx="215" cy="126" r="9" fill="#28c840"/><text x="255" y="134" font-family="Arial" font-size="24" fill="#dbeafe" font-weight="700">GökSoft Stok Yönetimi</text>
<rect x="145" y="195" width="210" height="430" rx="22" fill="#f8fbfe" stroke="#dbe8f1"/><rect x="175" y="225" width="150" height="18" rx="9" fill="#004b87"/><rect x="175" y="273" width="120" height="12" rx="6" fill="#94a3b8"/><rect x="175" y="315" width="140" height="12" rx="6" fill="#94a3b8"/><rect x="175" y="357" width="110" height="12" rx="6" fill="#94a3b8"/><rect x="175" y="399" width="130" height="12" rx="6" fill="#94a3b8"/>
<rect x="390" y="195" width="660" height="100" rx="24" fill="url(#g)"/><text x="430" y="255" font-family="Arial" font-size="32" fill="white" font-weight="800">Canlı stok, satış ve rapor ekranı</text>
<rect x="390" y="325" width="190" height="125" rx="22" fill="#f8fbfe" stroke="#dbe8f1"/><text x="425" y="375" font-family="Arial" font-size="20" fill="#64748b">Ürün</text><text x="425" y="415" font-family="Arial" font-size="34" fill="#004b87" font-weight="800">1.284</text>
<rect x="615" y="325" width="190" height="125" rx="22" fill="#f8fbfe" stroke="#dbe8f1"/><text x="650" y="375" font-family="Arial" font-size="20" fill="#64748b">Satış</text><text x="650" y="415" font-family="Arial" font-size="34" fill="#004b87" font-weight="800">342</text>
<rect x="840" y="325" width="210" height="125" rx="22" fill="#f8fbfe" stroke="#dbe8f1"/><text x="875" y="375" font-family="Arial" font-size="20" fill="#64748b">Rapor</text><text x="875" y="415" font-family="Arial" font-size="34" fill="#004b87" font-weight="800">Anlık</text>
<rect x="390" y="485" width="660" height="110" rx="24" fill="#f8fbfe" stroke="#dbe8f1"/><polyline points="430,555 500,525 570,545 640,500 710,515 780,475 850,493 930,455 1010,475" fill="none" stroke="#38aee2" stroke-width="10" stroke-linecap="round" stroke-linejoin="round"/></g>
</svg>